<svg width="20" height="14" viewBox="0 0 20 14" fill="none" xmlns="http://www.w3.org/2000/svg">
<g clip-path="url(#clip0_2107_222)">
<path d="M0.000732422 13.0514H19.9993V0.331421H0.000732422V13.0514Z" fill="black"/>
<path d="M0.232178 12.8233H19.786V0.562988H0.232178V12.8233Z" fill="white"/>
<path d="M4.54542 7.35433L4.92371 7.7888L5.3146 7.35722H5.62778V7.49058L5.13792 8.0332L5.62778 8.61337V7.35722H6.51194C6.67916 7.35722 6.92435 7.43466 6.92435 7.78197C6.92435 8.26921 6.60172 8.27498 6.42504 8.27498H5.9659V8.74672H5.31145L4.91163 8.28443L4.50211 8.74331H3.20081V7.35407H4.54542V7.35433V7.35433ZM8.55117 7.35433H9.66634V7.65387H8.89244V7.91402H9.64481V8.17759H8.89244V8.45271H9.66634V8.74357H8.55117V7.35433V7.35433ZM7.42707 8.74699H7.0858V7.35748H7.97284C8.14059 7.35748 8.38237 7.43204 8.38237 7.72947C8.38237 7.89748 8.33276 8.02113 8.14663 8.11432C8.30782 8.13296 8.37003 8.23849 8.37003 8.46163L8.38237 8.74699H8.05029L8.0411 8.49235C8.03821 8.37474 7.99148 8.25687 7.87387 8.25687H7.42707V8.74699V8.74699ZM11.808 7.89591C12.2277 7.91691 12.2624 8.12666 12.2624 8.3498C12.2624 8.61022 12.0484 8.74987 11.825 8.74987H11.1086V8.45244H11.667C11.7618 8.45244 11.9027 8.45244 11.9027 8.31856C11.9027 8.25503 11.8778 8.21487 11.777 8.20384C11.6987 8.19623 11.6201 8.1908 11.5415 8.18756C11.1627 8.17759 11.0747 7.98936 11.0747 7.75992C11.0747 7.49951 11.2577 7.35696 11.4811 7.35696H12.1975V7.65492H11.6733C11.5541 7.65649 11.4252 7.64074 11.4252 7.77594C11.4252 7.86099 11.489 7.87806 11.5693 7.88619C11.5972 7.88646 11.7833 7.89591 11.808 7.89591V7.89591ZM10.53 7.89591C10.9495 7.91691 10.9844 8.12666 10.9844 8.3498C10.9844 8.61022 10.7702 8.74987 10.5471 8.74987H9.83041V8.45244H10.3888C10.4833 8.45244 10.6248 8.45244 10.6248 8.31856C10.6248 8.25503 10.5999 8.21487 10.499 8.20384C10.4539 8.19754 10.288 8.18809 10.2636 8.18756C9.88476 8.17759 9.79681 7.98936 9.79681 7.75992C9.79681 7.49951 9.97979 7.35696 10.2029 7.35696H10.9196V7.65492H10.3954C10.2759 7.65649 10.1473 7.64074 10.1473 7.77594C10.1473 7.86099 10.2108 7.87806 10.2917 7.88619C10.3192 7.88646 10.5053 7.89591 10.53 7.89591V7.89591ZM6.03416 6.35861H5.69288V4.9691H6.57993C6.74741 4.9691 6.98972 5.04366 6.98972 5.34109C6.98972 5.50884 6.9401 5.63301 6.75398 5.72594C6.91516 5.74458 6.97738 5.85011 6.97738 6.07325L6.98972 6.35861H6.6579L6.64845 6.10423C6.6453 5.98636 6.59909 5.86875 6.48096 5.86875H6.03442V6.35861H6.03416V6.35861ZM7.1635 6.35861H7.50451V4.96753H7.1635V6.35861ZM4.3824 4.9691H5.49731V5.26837H4.7242V5.52905H5.47604V5.79288H4.7242V6.06721H5.49731V6.35861H4.3824V4.9691V4.9691ZM1.89242 6.35861H2.57943V5.32744L3.03516 6.35861H3.34546L3.81195 5.3445V6.35861H4.15296V4.9691H3.60876L3.19005 5.9013L2.77291 4.9691H2.2379V6.30742L1.64225 4.9691H1.19124L0.583252 6.35861H0.943163L1.07626 6.04857H1.75697L1.89242 6.35861V6.35861ZM9.46762 6.04936H8.78717L8.65381 6.35939H8.20386C7.82557 6.35939 7.65782 6.04227 7.66596 5.65769C7.67751 5.08697 8.01485 4.96832 8.16999 4.96832H8.61522V5.27074H8.40442C8.17787 5.27074 8.0012 5.29436 8.0012 5.61988V5.72069C8.00277 5.96562 8.13114 6.02364 8.21331 6.0407C8.23352 6.04542 8.2708 6.04726 8.28445 6.04621L8.43199 6.04542L8.90189 4.9691H9.35342L9.9349 6.27329V4.96832H10.4387L11.0141 5.93044V4.96832H11.3551V6.35939H10.8899L10.2759 5.34188V6.35939H9.60281L9.46762 6.04936V6.04936Z" fill="#00ACEC"/>
<path d="M12.2003 7.14059V0.955688H0.612549V5.73822L1.04701 4.75851H1.78521L2.02725 5.3413V4.75851H2.92637L3.19939 5.33552L3.46611 4.75851H6.636C6.75991 4.75851 6.9274 4.80209 7.00221 4.93833V4.75851H7.66586V4.96931C7.75275 4.8517 7.88296 4.75851 8.13707 4.75851H9.48956L9.73764 5.32266V4.75851H10.5381L10.8231 5.24863V4.75851H11.555V6.56935H10.7675L10.4386 6.03618V6.56935H9.43995L9.27876 6.21574H8.96217L8.81332 6.56935H8.18669C8.05018 6.55728 7.73411 6.5011 7.66586 6.29056V6.56935H6.46248V6.17269C6.46248 6.11651 6.41286 6.04852 6.34461 6.04852H6.2144V6.56935H3.65223V6.16009L3.46007 6.56935H2.93897L2.74051 6.15379V6.56935H1.71696L1.58045 6.24698H1.25152L1.10897 6.56935H0.612549V12.419H12.2003V8.83382C12.1384 8.90234 12.0391 8.958 11.8903 8.958H10.9221V8.82149C10.8478 8.90234 10.7426 8.958 10.5748 8.958H7.84568V8.57971C7.83938 8.52983 7.86432 8.42456 7.72781 8.42456H7.61624V8.958H6.89038V8.34344C6.81583 8.46814 6.6549 8.47391 6.54937 8.48021H6.16452V8.958H5.19688L4.91757 8.61672L4.61987 8.958H2.97625V7.14059H4.64481L4.9362 7.46926L5.23416 7.14059H6.55541C6.64834 7.14637 6.82501 7.18994 6.89038 7.28917V7.14059H8.01947C8.1187 7.14059 8.31086 7.18364 8.39172 7.31385V7.14059H9.8059V7.30151C9.88019 7.20254 9.99832 7.14059 10.1779 7.14059H11.0836V7.29574C11.1518 7.19624 11.3319 7.14059 11.4374 7.14059H12.2003V7.14059ZM15.3894 6.98255C15.3894 7.21488 14.5049 6.95867 14.5049 7.5236C14.5049 7.78166 14.7137 7.89848 14.9483 7.89848C15.1334 7.89848 15.2754 7.86015 15.4156 7.72968L15.466 7.86251H15.912C15.8866 7.81421 15.8826 7.7512 15.8826 7.68032V7.09911C15.8826 6.80247 15.8469 6.58432 15.2589 6.58432C14.768 6.58432 14.5806 6.73841 14.5806 7.00146H15.0549C15.0667 6.89487 15.1594 6.88096 15.2282 6.88096C15.2807 6.88096 15.3894 6.89277 15.3894 6.98255V6.98255ZM17.9557 7.69503V7.8612H18.3989V6.15326H17.9061V6.74393C17.8014 6.62054 17.6924 6.58274 17.536 6.58274C17.2393 6.58274 17.0094 6.85051 17.0094 7.26345C17.0094 7.61443 17.1992 7.89664 17.5738 7.89664C17.7331 7.89664 17.8397 7.84702 17.9557 7.69503V7.69503ZM16.8815 7.01038V6.58983C16.8603 6.58747 16.8387 6.58274 16.8172 6.58274C16.6256 6.58274 16.5043 6.67515 16.4355 6.86993H16.4308V6.61844H15.9827V7.86094H16.4757V7.3716C16.4757 7.10358 16.5778 7.00854 16.7794 7.00854L16.8815 7.01038V7.01038ZM13.9374 6.80299C13.9206 6.62553 13.809 6.52341 13.6337 6.52341C13.4368 6.52341 13.3181 6.69195 13.3181 7.02141C13.3181 7.26108 13.3704 7.48606 13.6547 7.48606C13.8353 7.48606 13.9206 7.36084 13.9421 7.19703H14.4803C14.4309 7.63806 14.1151 7.9032 13.6649 7.9032C13.1005 7.9032 12.7587 7.55773 12.7587 7.00224C12.7587 6.44964 13.1333 6.10575 13.6103 6.10575C14.1319 6.10575 14.4238 6.36433 14.469 6.80273H13.9374V6.80299V6.80299Z" fill="#00ACEC"/>
<path d="M5.96624 7.99005H6.39126C6.53066 7.99005 6.58027 7.9092 6.58027 7.81627C6.58027 7.74801 6.53538 7.65692 6.39257 7.65692H5.96624V7.99005ZM4.31606 7.65377H3.54242V7.91392H4.29427V8.17749H3.54242V8.45261H4.32866L4.70406 8.03337L4.37198 7.65508L4.31606 7.65377ZM7.42715 7.97168H7.85217C7.99156 7.97168 8.04118 7.90946 8.04118 7.81627C8.04118 7.74801 7.99629 7.65692 7.85348 7.65692H7.42715V7.97168V7.97168ZM6.03424 5.5833H6.45925C6.59891 5.5833 6.64826 5.52134 6.64826 5.42815C6.64826 5.36016 6.60337 5.26828 6.46056 5.26828H6.03424V5.5833V5.5833ZM1.62526 5.74947H1.20996L1.41367 5.26355L1.62526 5.74947ZM9.1238 5.26434L8.92061 5.74999H9.33749L9.1238 5.26434Z" fill="white"/>
<path d="M19.3166 8.24182L15.1423 12.4158H15.7351L19.3166 8.83458V8.24182Z" fill="#3B4095"/>
<path d="M19.3166 9.40979L16.3108 12.4159H16.903L19.3166 10.0028V9.40979Z" fill="#00ACEC"/>
<path d="M19.3167 10.578L17.4783 12.4159H18.0716L19.3167 11.1705V10.578Z" fill="#6CB35E"/>
<path d="M12.6243 11.7585C12.6244 11.6718 12.6417 11.586 12.675 11.506C12.7084 11.426 12.7572 11.3534 12.8186 11.2922C12.88 11.2311 12.9529 11.1826 13.0331 11.1497C13.1133 11.1167 13.1991 11.0999 13.2858 11.1001C13.3723 11.1 13.4579 11.117 13.5378 11.1501C13.6178 11.1831 13.6904 11.2316 13.7515 11.2928C13.8127 11.3539 13.8612 11.4265 13.8942 11.5065C13.9273 11.5864 13.9443 11.672 13.9442 11.7585C13.9446 11.8452 13.9278 11.9312 13.8949 12.0114C13.862 12.0917 13.8136 12.1646 13.7524 12.2261C13.6913 12.2876 13.6185 12.3364 13.5385 12.3697C13.4584 12.403 13.3725 12.4202 13.2858 12.4203C13.1989 12.4204 13.1128 12.4034 13.0325 12.3701C12.9521 12.3369 12.8792 12.2882 12.8177 12.2267C12.7563 12.1652 12.7075 12.0922 12.6743 12.0119C12.6411 11.9315 12.6241 11.8454 12.6243 11.7585V11.7585Z" fill="#00ACEC"/>
<path d="M13.8648 11.7585C13.8649 11.6825 13.8499 11.6072 13.8208 11.537C13.7918 11.4668 13.7491 11.403 13.6954 11.3492C13.6416 11.2955 13.5778 11.2529 13.5075 11.2238C13.4373 11.1948 13.362 11.1799 13.286 11.1799C13.2099 11.1797 13.1344 11.1945 13.0641 11.2235C12.9937 11.2525 12.9297 11.2951 12.8758 11.3488C12.8218 11.4026 12.7791 11.4664 12.7499 11.5367C12.7207 11.607 12.7056 11.6824 12.7056 11.7585C12.7056 11.9123 12.7666 12.0597 12.8753 12.1684C12.984 12.2771 13.1315 12.3382 13.2852 12.3382C13.4389 12.3382 13.5864 12.2771 13.6951 12.1684C13.8038 12.0597 13.8648 11.9123 13.8648 11.7585V11.7585Z" fill="white"/>
<path d="M13.6141 12.1285H13.5073L13.296 11.788H13.1306V12.1285H13.0405V11.3903H13.3618C13.4241 11.3903 13.4863 11.3939 13.5417 11.4267C13.5971 11.458 13.6244 11.5236 13.6244 11.5856C13.6244 11.731 13.5228 11.7846 13.3912 11.788L13.6141 12.1285V12.1285Z" fill="#00ACEC"/>
<path d="M13.2689 11.7171C13.3726 11.7171 13.5333 11.7344 13.5333 11.5837C13.5333 11.4698 13.433 11.4561 13.3414 11.4561H13.1309V11.7171H13.2689ZM15.3896 7.31231C15.3909 7.5449 15.3195 7.61841 15.1465 7.61841C15.0491 7.61841 14.9897 7.57562 14.9897 7.51419C14.99 7.35248 15.2286 7.39054 15.3896 7.31231V7.31231ZM17.9228 7.25167C17.9228 7.39606 17.8685 7.5407 17.6976 7.5407C17.5367 7.5407 17.5036 7.38923 17.5036 7.2585C17.5036 7.12146 17.5485 6.96448 17.7123 6.96448C17.8756 6.96448 17.9228 7.11385 17.9228 7.25167Z" fill="white"/>
</g>
<defs>
<clipPath id="clip0_2107_222">
<rect width="20" height="12.72" fill="white" transform="translate(0 0.331421)"/>
</clipPath>
</defs>
</svg>
