<svg width="26" height="21" viewBox="0 0 26 21" fill="none" xmlns="http://www.w3.org/2000/svg">
<g clip-path="url(#clip0_2107_268)">
<path d="M25.7518 13.559V13.2505H25.6715L25.5785 13.4622L25.4857 13.2507H25.4049V13.5592H25.462V13.3263L25.5489 13.5268H25.608L25.6953 13.3263V13.5592H25.7518V13.559ZM25.2422 13.559V13.3033H25.345V13.2519H25.0823V13.3033H25.1851V13.5588H25.2417L25.2422 13.559Z" fill="#0099DF"/>
<path d="M16.6223 14.8817H9.67114V2.38989H16.6223V14.8817Z" fill="#2271CE"/>
<path d="M10.1121 8.63614C10.1121 6.10208 11.2986 3.84476 13.1462 2.39013C11.7475 1.28724 10.0176 0.688695 8.23641 0.691415C3.8494 0.691415 0.292969 4.24836 0.292969 8.63614C0.292969 13.0239 3.8494 16.5809 8.23641 16.5809C10.0177 16.5835 11.7478 15.9848 13.1464 14.8816C11.2986 13.4275 10.1121 11.1702 10.1121 8.63614Z" fill="#005EB6"/>
<path d="M26 8.63615C26 13.0239 22.4435 16.5809 18.0565 16.5809C16.2752 16.5835 14.5451 15.9848 13.1465 14.8816C14.9942 13.427 16.1805 11.1697 16.1805 8.63563C16.1805 6.10157 14.9943 3.84476 13.1465 2.39C14.5452 1.2871 16.2753 0.688602 18.0565 0.691416C22.4438 0.691416 26 4.24836 26 8.63615Z" fill="#0099DF"/>
<path d="M19.108 20.4154V20.4669H19.1559C19.1649 20.4672 19.1739 20.4649 19.1816 20.4603C19.1849 20.4582 19.1876 20.4553 19.1893 20.4518C19.1911 20.4484 19.192 20.4445 19.1918 20.4406C19.192 20.4368 19.1911 20.433 19.1893 20.4297C19.1876 20.4263 19.1849 20.4235 19.1816 20.4215C19.174 20.4167 19.165 20.4144 19.1559 20.4149L19.108 20.4154ZM19.1564 20.3791C19.177 20.3778 19.1973 20.3837 19.214 20.3958C19.2207 20.4013 19.226 20.4082 19.2295 20.4161C19.233 20.424 19.2346 20.4326 19.2342 20.4413C19.2345 20.4487 19.2332 20.4561 19.2304 20.4629C19.2276 20.4698 19.2234 20.476 19.218 20.4811C19.2051 20.4922 19.189 20.4989 19.172 20.5003L19.2363 20.5735H19.1868L19.1276 20.5008H19.1085V20.5735H19.0671V20.3791H19.1564ZM19.1436 20.6403C19.1653 20.6405 19.1868 20.6361 19.2067 20.6274C19.2457 20.6108 19.2767 20.5796 19.2931 20.5405C19.3057 20.5105 19.3091 20.4775 19.3029 20.4456C19.2967 20.4136 19.2811 20.3843 19.2582 20.3612C19.2436 20.3465 19.2261 20.3348 19.2068 20.3269C19.1869 20.3182 19.1654 20.3138 19.1437 20.314C19.1216 20.314 19.0998 20.3183 19.0794 20.3269C19.0398 20.344 19.0085 20.376 18.9924 20.416C18.9762 20.4559 18.9765 20.5007 18.9931 20.5405C19.0009 20.5598 19.0126 20.5773 19.0274 20.5919C19.0422 20.6066 19.0597 20.6184 19.0788 20.6268C19.0991 20.6353 19.121 20.6397 19.1431 20.6396M19.1431 20.2669C19.1995 20.267 19.2536 20.2891 19.2941 20.3284C19.3135 20.3474 19.329 20.3701 19.3396 20.3951C19.3506 20.4208 19.3563 20.4485 19.3563 20.4764C19.3563 20.5044 19.3506 20.532 19.3396 20.5577C19.3289 20.5825 19.3134 20.605 19.2941 20.6239C19.2744 20.6433 19.2513 20.6587 19.2258 20.6694C19.1997 20.6806 19.1714 20.6863 19.1429 20.6861C19.1147 20.6863 19.0866 20.6809 19.0605 20.6702C19.0343 20.6595 19.0105 20.6438 18.9904 20.6239C18.9711 20.605 18.9556 20.5825 18.9449 20.5577C18.9339 20.532 18.9282 20.5044 18.9282 20.4764C18.9282 20.4485 18.9339 20.4208 18.9449 20.3951C18.9555 20.3701 18.9709 20.3474 18.9904 20.3284C19.0098 20.309 19.0331 20.2937 19.0586 20.2834C19.0853 20.2722 19.114 20.2665 19.1429 20.2667" fill="#242021"/>
<path d="M18.5387 18.6311C18.318 18.4856 18.0134 18.4104 17.6785 18.4104C17.1441 18.4104 16.8001 18.6665 16.8001 19.0857C16.8001 19.4297 17.0562 19.6414 17.528 19.708L17.7447 19.7388C17.9958 19.7742 18.1151 19.8404 18.1151 19.959C18.1151 20.1226 17.948 20.215 17.6342 20.215C17.3165 20.215 17.0872 20.1135 16.9327 19.9943L16.7165 20.3519C16.968 20.5373 17.2857 20.6257 17.6291 20.6257C18.2382 20.6257 18.5913 20.3388 18.5913 19.9373C18.5913 19.5666 18.3135 19.3726 17.8544 19.3059L17.6382 19.2751C17.4397 19.2494 17.2806 19.2089 17.2806 19.068C17.2806 18.9138 17.4306 18.821 17.6821 18.821C17.9513 18.821 18.212 18.9225 18.3399 19.0018L18.5383 18.6311H18.5387ZM7.70117 19.518C7.70117 20.158 8.14667 20.6257 8.82649 20.6257C9.14423 20.6257 9.3558 20.555 9.58485 20.3742L9.36415 20.0035C9.19243 20.1273 9.01158 20.1934 8.81261 20.1934C8.44642 20.189 8.17765 19.9242 8.17765 19.5181C8.17765 19.1121 8.44642 18.8473 8.81261 18.8428C9.01158 18.8428 9.19243 18.909 9.36415 19.0327L9.58485 18.662C9.35554 18.4811 9.14385 18.4104 8.82649 18.4104C8.14667 18.4104 7.70117 18.8782 7.70117 19.5181M12.1251 18.4105C11.8604 18.4105 11.6881 18.5343 11.5689 18.719V18.463H11.1156V20.5722H11.5742V19.3897C11.5742 19.0413 11.7242 18.8473 12.0241 18.8473C12.1222 18.8459 12.2198 18.8639 12.3109 18.9004L12.4523 18.468C12.3513 18.4282 12.2185 18.4104 12.1261 18.4104M13.8305 18.4104C13.5658 18.4104 13.3935 18.5342 13.2743 18.7189V18.4629H12.8193V20.5721H13.2779V19.3896C13.2779 19.0411 13.4279 18.8472 13.7278 18.8472C13.826 18.8457 13.9235 18.8638 14.0147 18.9003L14.1561 18.4679C14.055 18.428 13.9223 18.4103 13.8298 18.4103M10.6143 20.5719H10.1525V18.4656H10.6143V20.5719ZM10.3809 17.413C10.4238 17.4126 10.4663 17.4207 10.506 17.437C10.5458 17.4532 10.5819 17.4771 10.6122 17.5075C10.6417 17.537 10.6652 17.5719 10.6815 17.6103C10.7149 17.6921 10.7149 17.7837 10.6815 17.8654C10.6656 17.904 10.6421 17.939 10.6124 17.9683C10.5828 17.9971 10.5479 18.0197 10.5095 18.035C10.4689 18.0512 10.4255 18.0594 10.3818 18.0591C10.3382 18.0595 10.2949 18.0513 10.2545 18.035C10.216 18.02 10.181 17.9973 10.1517 17.9683C10.1228 17.9388 10.1001 17.9038 10.085 17.8654C10.0686 17.825 10.0603 17.7818 10.0607 17.7382C10.0604 17.6944 10.0686 17.651 10.085 17.6104C10.1005 17.5722 10.1231 17.5373 10.1517 17.5076C10.1809 17.4778 10.2159 17.4543 10.2545 17.4384C10.2947 17.4211 10.338 17.4124 10.3818 17.4127M16.433 19.6792C16.433 19.8463 16.4053 19.9899 16.3508 20.11C16.3011 20.2231 16.2269 20.3236 16.1336 20.4045C16.0433 20.481 15.9383 20.5383 15.8251 20.5728C15.5931 20.6448 15.3448 20.6448 15.1129 20.5728C14.9993 20.5383 14.894 20.481 14.8032 20.4045C14.7096 20.3239 14.6354 20.2233 14.586 20.11C14.5319 19.9901 14.5048 19.8464 14.5046 19.6792V18.4654H14.9608V19.6374C14.9608 19.7384 14.9737 19.8248 14.9994 19.896C15.0218 19.9608 15.0586 20.0197 15.107 20.0683C15.1526 20.1124 15.2079 20.1453 15.2685 20.1643C15.3987 20.204 15.5378 20.204 15.668 20.1643C15.7286 20.1453 15.7839 20.1124 15.8296 20.0683C15.8781 20.0198 15.9149 19.9609 15.9372 19.896C15.9629 19.8248 15.9757 19.7384 15.9757 19.6374V18.4656H16.4318V19.6793L16.433 19.6792Z" fill="#231F20"/>
</g>
<defs>
<clipPath id="clip0_2107_268">
<rect width="25.7069" height="20" fill="white" transform="translate(0.292969 0.691406)"/>
</clipPath>
</defs>
</svg>
